<svg xmlns="http://www.w3.org/2000/svg" xmlns:xlink="http://www.w3.org/1999/xlink" width="1600" zoomAndPan="magnify" viewBox="0 0 1200 299.999988" height="400" preserveAspectRatio="xMidYMid meet" version="1.0"><defs><g></g><clipPath id="fc0c12f68b"><rect x="0" width="833" y="0" height="275"></rect></clipPath><clipPath id="43d7c97a54"><rect x="0" width="431" y="0" height="275"></rect></clipPath><clipPath id="ee3ae5f6ba"><path d="M 75.335938 45.046875 L 252 45.046875 L 252 126 L 75.335938 126 Z M 75.335938 45.046875 " clip-rule="nonzero"></path></clipPath><clipPath id="3415d43f50"><path d="M 75.335938 161 L 253 161 L 253 242.296875 L 75.335938 242.296875 Z M 75.335938 161 " clip-rule="nonzero"></path></clipPath><clipPath id="cca9f6480e"><path d="M 254 154 L 254.585938 154 L 254.585938 156 L 254 156 Z M 254 154 " clip-rule="nonzero"></path></clipPath></defs><g transform="matrix(1, 0, 0, 1, 362, 25)"><g clip-path="url(#fc0c12f68b)"><g fill="#000000" fill-opacity="1"><g transform="translate(0.207983, 219.256984)"><g><path d="M 169.9375 -191.546875 L 169.9375 -81.546875 C 169.9375 -62.753906 166.238281 -47.15625 158.84375 -34.75 C 151.457031 -22.34375 141.648438 -13.082031 129.421875 -6.96875 C 117.203125 -0.863281 103.796875 2.1875 89.203125 2.1875 C 74.429688 2.1875 60.882812 -0.820312 48.5625 -6.84375 C 36.25 -12.863281 26.441406 -22.078125 19.140625 -34.484375 C 11.847656 -46.890625 8.203125 -62.578125 8.203125 -81.546875 L 8.203125 -191.546875 L 28.734375 -191.546875 L 28.734375 -81.265625 C 28.734375 -61.929688 34.160156 -46.515625 45.015625 -35.015625 C 55.867188 -23.523438 70.597656 -17.78125 89.203125 -17.78125 C 107.628906 -17.78125 122.222656 -23.390625 132.984375 -34.609375 C 143.753906 -45.828125 149.140625 -61.378906 149.140625 -81.265625 L 149.140625 -191.546875 Z M 169.9375 -191.546875 "></path></g></g></g><g fill="#000000" fill-opacity="1"><g transform="translate(225.965778, 219.256984)"><g></g></g></g><g fill="#000000" fill-opacity="1"><g transform="translate(361.144063, 219.256984)"><g></g></g></g><g fill="#000000" fill-opacity="1"><g transform="translate(496.329844, 219.256984)"><g><path d="M 8.203125 0 L 8.203125 -191.546875 L 28.734375 -191.546875 L 28.734375 0 Z M 8.203125 0 "></path></g></g></g><g fill="#000000" fill-opacity="1"><g transform="translate(580.884864, 219.256984)"><g><path d="M 195.109375 -95.78125 C 195.109375 -73.695312 190.910156 -55.445312 182.515625 -41.03125 C 174.128906 -26.625 162.863281 -15.863281 148.71875 -8.75 C 134.582031 -1.632812 118.847656 1.921875 101.515625 1.921875 C 84.367188 1.921875 68.726562 -1.632812 54.59375 -8.75 C 40.457031 -15.863281 29.191406 -26.625 20.796875 -41.03125 C 12.398438 -55.445312 8.203125 -73.695312 8.203125 -95.78125 C 8.203125 -112.5625 10.617188 -127.0625 15.453125 -139.28125 C 20.296875 -151.5 27.003906 -161.625 35.578125 -169.65625 C 44.148438 -177.6875 53.953125 -183.660156 64.984375 -187.578125 C 76.023438 -191.503906 87.65625 -193.46875 99.875 -193.46875 L 101.515625 -193.46875 C 118.847656 -193.28125 134.582031 -189.628906 148.71875 -182.515625 C 162.863281 -175.398438 174.128906 -164.679688 182.515625 -150.359375 C 190.910156 -136.046875 195.109375 -117.851562 195.109375 -95.78125 Z M 174.3125 -95.78125 C 174.3125 -112.195312 170.84375 -126.195312 163.90625 -137.78125 C 156.976562 -149.363281 147.992188 -158.207031 136.953125 -164.3125 C 125.921875 -170.425781 114.109375 -173.484375 101.515625 -173.484375 L 100.15625 -173.484375 C 91.582031 -173.484375 83.050781 -171.796875 74.5625 -168.421875 C 66.082031 -165.046875 58.421875 -160.03125 51.578125 -153.375 C 44.734375 -146.71875 39.257812 -138.550781 35.15625 -128.875 C 31.050781 -119.207031 29 -108.175781 29 -95.78125 C 29 -83.550781 31.003906 -72.601562 35.015625 -62.9375 C 39.035156 -53.269531 44.507812 -45.101562 51.4375 -38.4375 C 58.375 -31.78125 66.128906 -26.71875 74.703125 -23.25 C 83.273438 -19.789062 92.210938 -18.0625 101.515625 -18.0625 C 114.835938 -18.0625 126.96875 -21.113281 137.90625 -27.21875 C 148.851562 -33.332031 157.65625 -42.179688 164.3125 -53.765625 C 170.976562 -65.347656 174.3125 -79.351562 174.3125 -95.78125 Z M 174.3125 -95.78125 "></path></g></g></g></g></g><g transform="matrix(1, 0, 0, 1, 355, 0)"><g clip-path="url(#43d7c97a54)"><g fill="#000000" fill-opacity="1"><g transform="translate(430.376176, 55.739339)"><g><path d="M -169.9375 191.546875 L -169.9375 81.546875 C -169.9375 62.753906 -166.238281 47.15625 -158.84375 34.75 C -151.457031 22.34375 -141.648438 13.082031 -129.421875 6.96875 C -117.203125 0.863281 -103.796875 -2.1875 -89.203125 -2.1875 C -74.429688 -2.1875 -60.882812 0.820312 -48.5625 6.84375 C -36.25 12.863281 -26.441406 22.078125 -19.140625 34.484375 C -11.847656 46.890625 -8.203125 62.578125 -8.203125 81.546875 L -8.203125 191.546875 L -28.734375 191.546875 L -28.734375 81.265625 C -28.734375 61.929688 -34.160156 46.515625 -45.015625 35.015625 C -55.867188 23.523438 -70.597656 17.78125 -89.203125 17.78125 C -107.628906 17.78125 -122.222656 23.390625 -132.984375 34.609375 C -143.753906 45.828125 -149.140625 61.378906 -149.140625 81.265625 L -149.140625 191.546875 Z M -169.9375 191.546875 "></path></g></g></g><g fill="#000000" fill-opacity="1"><g transform="translate(170.138834, 55.739339)"><g></g></g></g></g></g><g clip-path="url(#ee3ae5f6ba)"><path fill="#ffaa09" d="M 76.855469 82.828125 C 98.375 54.144531 135.835938 41.078125 170.507812 46.097656 C 205.929688 51.222656 238.964844 75.253906 250.851562 120.484375 L 251.859375 124.324219 L 225.417969 124.324219 L 225.417969 125.511719 C 216.011719 91.960938 192.15625 75.410156 166.8125 71.742188 C 140.324219 67.910156 112.695312 78.175781 97.527344 98.398438 L 96.675781 99.53125 L 75.714844 84.351562 Z M 76.855469 82.828125 " fill-opacity="1" fill-rule="nonzero"></path></g><g clip-path="url(#3415d43f50)"><path fill="#ffaa09" d="M 251.15625 166.894531 C 238.238281 214.03125 203.710938 237.566406 167.542969 241.554688 C 132.335938 245.433594 94.859375 230.78125 75.359375 201.546875 L 75.335938 201.507812 L 96.492188 186.601562 L 96.859375 187.148438 C 110.1875 207.136719 137.558594 218.789062 164.714844 215.796875 C 190.585938 212.945312 215.636719 196.792969 225.847656 161.359375 L 252.671875 161.359375 Z M 251.15625 166.894531 " fill-opacity="1" fill-rule="nonzero"></path></g><g clip-path="url(#cca9f6480e)"><path fill="#ffaa09" d="M 254.578125 154.402344 L 254.257812 155.574219 L 254.257812 154.3125 Z M 254.578125 154.402344 " fill-opacity="1" fill-rule="nonzero"></path></g></svg>